<svg version="1.1" id="Layer_1" xmlns="http://www.w3.org/2000/svg" xmlns:xlink="http://www.w3.org/1999/xlink" x="0px" y="0px"
	 width="100%" viewBox="0 0 163 175" enable-background="new 0 0 163 175" xml:space="preserve">
<path fill="#FAFAFA" opacity="1.000000" stroke="none" 
	d="
M111.000000,176.000000 
	C74.000008,176.000000 37.500008,176.000000 1.000010,176.000000 
	C1.000007,117.666679 1.000007,59.333355 1.000003,1.000026 
	C55.333317,1.000017 109.666634,1.000017 163.999969,1.000008 
	C163.999969,59.333309 163.999969,117.666618 163.999985,175.999969 
	C146.500000,176.000000 129.000000,176.000000 111.000000,176.000000 
M97.580978,134.265457 
	C108.812256,129.145020 115.654060,120.444061 116.619270,108.206940 
	C117.440491,97.795494 116.648399,87.266342 117.021500,76.805367 
	C117.173569,72.541519 115.510246,71.858467 111.826874,71.911049 
	C99.670692,72.084587 87.510429,71.971458 75.351730,71.969460 
	C68.413712,71.968323 61.475685,71.969246 53.981205,71.969246 
	C53.981205,83.324211 53.852146,93.941788 54.007637,104.555199 
	C54.348072,127.792725 74.841919,142.112289 97.580978,134.265457 
M103.495277,65.007042 
	C107.768806,65.007042 112.042343,65.007042 116.647240,65.007042 
	C116.647240,55.430668 116.647240,46.423691 116.647240,37.048241 
	C108.174965,37.048241 99.887383,36.980137 91.604591,37.147984 
	C90.724792,37.165810 89.137848,38.549934 89.121147,39.326912 
	C88.940308,47.738743 89.008217,56.155926 89.008217,65.007019 
	C93.925438,65.007019 98.214203,65.007019 103.495277,65.007042 
M52.001682,57.305473 
	C57.105190,65.078979 64.920601,67.179031 72.034790,62.688492 
	C78.220016,58.784317 80.118225,50.310490 76.265724,43.801048 
	C72.782547,37.915638 65.276062,35.526527 58.888309,38.270287 
	C51.926815,41.260494 49.214951,48.184853 52.001682,57.305473 
z"/>
<path fill="#7B7163" opacity="1.000000" stroke="none" 
	d="
M97.238060,134.447205 
	C74.841919,142.112289 54.348072,127.792725 54.007637,104.555199 
	C53.852146,93.941788 53.981205,83.324211 53.981205,71.969246 
	C61.475685,71.969246 68.413712,71.968323 75.351730,71.969460 
	C87.510429,71.971458 99.670692,72.084587 111.826874,71.911049 
	C115.510246,71.858467 117.173569,72.541519 117.021500,76.805367 
	C116.648399,87.266342 117.440491,97.795494 116.619270,108.206940 
	C115.654060,120.444061 108.812256,129.145020 97.238060,134.447205 
M95.771576,80.144608 
	C94.225060,80.243248 92.678551,80.341888 91.132034,80.440536 
	C90.922432,80.864456 90.712830,81.288368 90.503235,81.712288 
	C96.009453,87.169716 101.515671,92.627151 107.021889,98.084579 
	C107.383171,97.743050 107.744453,97.401520 108.105736,97.059990 
	C108.105736,91.513794 108.105736,85.967590 108.105736,80.144356 
	C104.004395,80.144356 100.348999,80.144356 95.771576,80.144608 
z"/>
<path fill="#7C7263" opacity="1.000000" stroke="none" 
	d="
M102.999123,65.007034 
	C98.214203,65.007019 93.925438,65.007019 89.008217,65.007019 
	C89.008217,56.155926 88.940308,47.738743 89.121147,39.326912 
	C89.137848,38.549934 90.724792,37.165810 91.604591,37.147984 
	C99.887383,36.980137 108.174965,37.048241 116.647240,37.048241 
	C116.647240,46.423691 116.647240,55.430668 116.647240,65.007042 
	C112.042343,65.007042 107.768806,65.007042 102.999123,65.007034 
z"/>
<path fill="#F23E42" opacity="1.000000" stroke="none" 
	d="
M51.851791,56.962631 
	C49.214951,48.184853 51.926815,41.260494 58.888309,38.270287 
	C65.276062,35.526527 72.782547,37.915638 76.265724,43.801048 
	C80.118225,50.310490 78.220016,58.784317 72.034790,62.688492 
	C64.920601,67.179031 57.105190,65.078979 51.851791,56.962631 
z"/>
<path fill="#F4F2F1" opacity="1.000000" stroke="none" 
	d="
M96.232590,80.144485 
	C100.348999,80.144356 104.004395,80.144356 108.105736,80.144356 
	C108.105736,85.967590 108.105736,91.513794 108.105736,97.059990 
	C107.744453,97.401520 107.383171,97.743050 107.021889,98.084579 
	C101.515671,92.627151 96.009453,87.169716 90.503235,81.712288 
	C90.712830,81.288368 90.922432,80.864456 91.132034,80.440536 
	C92.678551,80.341888 94.225060,80.243248 96.232590,80.144485 
z"/>
</svg>