<?xml version="1.0" encoding="UTF-8"?>
<!DOCTYPE svg PUBLIC "-//W3C//DTD SVG 1.1//EN" "http://www.w3.org/Graphics/SVG/1.1/DTD/svg11.dtd">
<!-- Creator: CorelDRAW -->
<svg xmlns="http://www.w3.org/2000/svg" xml:space="preserve" width="210mm" height="297mm" version="1.1" style="shape-rendering:geometricPrecision; text-rendering:geometricPrecision; image-rendering:optimizeQuality; fill-rule:evenodd; clip-rule:evenodd"
viewBox="0 0 21000 29700"
 xmlns:xlink="http://www.w3.org/1999/xlink"
 xmlns:xodm="http://www.corel.com/coreldraw/odm/2003">
 <defs>
  <style type="text/css">
   <![CDATA[
    .fil1 {fill:#E31E24}
    .fil2 {fill:#B0CB1F}
    .fil0 {fill:#006CB5}
    .fil3 {fill:#E31E24;fill-rule:nonzero}
    .fil4 {fill:#006CB5;fill-rule:nonzero}
   ]]>
  </style>
 </defs>
 <g id="Layer_x0020_1">
  <metadata id="CorelCorpID_0Corel-Layer"/>
  <g id="_1918426028000">
   <polygon class="fil0" points="8306.82,13844.22 10025.17,13844.22 10025.17,15562.56 9747.54,15562.56 9747.54,14121.85 8306.82,14121.85 "/>
   <polygon class="fil1" points="8667.87,16734.77 6949.53,16734.77 6949.53,15016.44 7227.16,15016.44 7227.16,16457.14 8667.87,16457.14 "/>
   <path class="fil2" d="M8487.36 14572.28c395.01,0 717.2,322.2 717.2,717.22 0,395.01 -322.19,717.21 -717.2,717.21 -395.03,0 -717.23,-322.2 -717.23,-717.21 0,-395.02 322.2,-717.22 717.23,-717.22zm0 246.79c259.09,0 470.42,211.33 470.42,470.43 0,259.1 -211.33,470.43 -470.42,470.43 -259.11,0 -470.44,-211.33 -470.44,-470.43 0,-259.1 211.33,-470.43 470.44,-470.43z"/>
   <path class="fil3" d="M8462.91 12939.05c0,21.16 -12.16,31.93 -36.87,31.93l-22.5 0c-48.13,-5.37 -87.72,-8.07 -118.76,-8.07 -226.72,0 -493.93,98.96 -801.15,296.41 -148.02,95.82 -273.05,193 -376.06,291.5 -98.96,96.26 -285.65,300.03 -558.7,609.98 -322.54,367.07 -565.46,609.99 -729.2,728.75 -85.91,63.41 -133.59,94.89 -142.14,94.89 -5.41,0 -8.09,-2.25 -8.09,-6.73 0,-0.92 9.9,-14.39 29.26,-40.95 155.63,-201.08 288.78,-439.93 400.33,-715.69 111.09,-276.18 166.89,-506.51 166.89,-690.94 0,-297.34 -120.54,-445.79 -361.23,-445.79 -94.45,0 -204.22,32.39 -327.91,97.62 -123.71,64.79 -236.61,149.36 -338.73,252.8 -110.65,113.36 -198.81,239.77 -265.4,379.21 -66.11,139.03 -99.41,269.46 -99.41,390.92 0,108.85 29.22,194.76 88.16,258.21 58.93,63.41 138.55,94.89 238.4,94.89 194.79,0 384.62,-125.04 569.04,-374.7 131.81,-178.57 197.49,-338.28 197.49,-479.05 0,-63.45 -15.74,-113.84 -46.77,-151.17 -31.04,-37.33 -72.88,-56.24 -125.52,-56.24 -29.68,0 -59.39,6.78 -88.62,20.72 -29.22,13.47 -44.08,27.41 -44.08,41.37 0,5.39 3.17,8.09 9,8.09l10.78 0c24.3,-3.59 37.81,-5.39 40.06,-5.39 39.12,0 58.9,21.59 58.9,64.32 0,27.46 -10.32,50.84 -31.47,70.63 -21.14,19.8 -45.43,29.68 -73.33,29.68 -54.43,0 -81.4,-27.87 -81.4,-84.1 0,-45.43 19.79,-85.01 59.38,-118.76 39.58,-33.74 86.35,-50.83 140.78,-50.83 58.93,0 106.61,21.14 142.61,62.52 36,41.84 53.97,96.72 53.97,164.19 0,172.29 -85.46,361.23 -255.97,566.79 -174.51,209.17 -354.01,313.53 -538.87,313.53 -115.63,0 -210.08,-40.46 -282.95,-121.46 -73.33,-80.49 -109.77,-185.31 -109.77,-313.53 0,-244.25 122.82,-485.36 367.96,-724.23 245.62,-238.41 493.02,-357.61 742.7,-357.61 147.98,0 268.07,51.72 359.85,154.75 92.2,103.44 138.1,239.29 138.1,407.08 0,179.5 -50.38,367.98 -151.6,565.88 -101.22,197.94 -264.05,427.82 -488.97,689.6 -8.99,10.81 -13.5,16.66 -13.5,18.47l2.7 4.03c14.86,0 70.17,-40.92 165.09,-122.79 72.9,-61.2 148.44,-134.96 226.72,-219.98 70.19,-76.47 255.5,-285.64 555.98,-627.97 177.7,-201.96 334.25,-361.23 469.62,-477.73 134.97,-116.49 287.03,-222.67 454.81,-318.46 273.05,-156.56 514.16,-234.82 722.45,-234.82 71.96,0 107.94,12.58 107.94,38.23zm-954.09 1461.07c0,20.25 -63.88,105.71 -190.71,256.39 -105.29,125.05 -188.93,187.58 -250.13,187.58 -38.69,0 -71.07,-15.74 -98.08,-46.78 -26.52,-31.03 -40.02,-68.36 -40.02,-112.46 0,-34.18 17.09,-81.87 51.28,-143.51l-26.09 35.55c-80.94,103.48 -140.33,172.75 -178.13,207.84 -41.37,39.56 -80.51,59.36 -117.4,59.36 -38.69,0 -71.06,-15.29 -97.62,-45.43 -26.52,-30.13 -39.59,-67.46 -39.59,-111.11 0,-50.83 19.79,-109.28 59.39,-174.99l240.2 -402.59c29.71,6.29 53.1,9.43 69.74,9.43 16.64,0 46.32,-3.14 89.5,-9.43l-313.98 516.43c-31.93,52.61 -47.67,98.96 -47.67,139.43 0,39.59 16.63,59.38 50.37,59.38 88.62,0 231.22,-165.56 427.34,-496.62l129.55 -218.62c27.46,6.29 49.94,9.43 68.38,9.43 22.04,0 53.08,-3.14 93.56,-9.43l-210.97 343.65c-100.32,163.3 -150.68,268.56 -150.68,314.91 0,37.78 17.98,56.68 53.98,56.68 70.18,0 183.99,-111.11 341.87,-333.78l40.94 -57.12 23.82 -28.82c4.51,-8.99 8.54,-13.47 13.05,-13.47 5.4,0 8.1,2.7 8.1,8.1zm663.98 2.7c0,2.67 -8.11,13.93 -23.84,34.19l-56.67 71.06c-181.76,224.02 -337.41,336.02 -467.41,336.02 -61.6,0 -112.9,-22.03 -154.73,-66.57 -41.84,-44.09 -62.51,-99.85 -62.51,-166.44 0,-157.9 110.21,-296.89 330.6,-416.99 116.06,-63.43 210.54,-94.92 283.42,-94.92 31.49,0 58.46,9.46 80.94,28.33 22.5,18.91 33.76,41.84 33.76,69.29 0,62.98 -41.37,116.95 -123.73,161.49 -82.3,44.07 -219.94,85.91 -412.94,124.16 -59.83,90.86 -89.49,165.97 -89.49,226.71 0,75.58 40.92,113.36 122.33,113.36 138.56,0 307.7,-135.4 508.78,-406.65 10.35,-13.96 18.9,-21.14 26.08,-21.14 3.59,0.89 5.41,3.59 5.41,8.1zm-109.33 -245.17c0,-28.33 -15.29,-42.28 -46.32,-42.28 -46.32,0 -107.51,32.37 -183.54,97.16 -76.03,64.33 -150.68,148.45 -223.56,251 126.85,-32.36 233.91,-78.27 321.64,-137.65 87.72,-59.38 131.78,-115.62 131.78,-168.23z"/>
   <path class="fil4" d="M10573.4 15605.57c0,9.82 -24.11,25.32 -72.04,46.45 -47.88,21.09 -102.63,39.85 -164.23,56.82 -144.62,103.54 -288.03,288.32 -429.66,554.61l-13.99 26.18c6.86,1.22 15.18,1.82 24.41,1.82 70.83,0 136.29,-21.74 196.08,-65.47 59.79,-43.44 96.12,-96.12 108.91,-157.72 2.37,-9.23 5.63,-13.97 9.82,-13.97 3.26,0 5.04,2.37 5.04,7.15 0,35.39 -19.01,75.57 -57.42,121.1 -68.72,82.1 -157.1,123.17 -265.99,123.17 -10.43,0 -20.55,-0.59 -30.37,-1.78l-24.38 47.9c-42.56,81.51 -80.05,141.93 -112.47,181.52 -30.37,37.17 -71.43,74.36 -123.77,111.58 -145.83,103.52 -295.18,155.3 -447.83,155.3 -85.39,0 -155.9,-18.15 -211.24,-54.15 -55.64,-35.99 -83.34,-82.14 -83.34,-138.67 0,-30.03 8.65,-55.93 25.59,-77.06 17.27,-21.14 38.11,-31.85 62.49,-31.85 37.82,0 56.54,19.64 56.54,59.24 0,19.01 -6.23,35.4 -18.72,48.78 -12.54,13.38 -28,19.94 -45.86,19.94 -27.36,0 -41.04,-13.08 -41.04,-39.28l0 -17.25c0,-5.37 -1.78,-8.04 -5.37,-8.63 -10.41,0 -15.75,14.56 -15.75,44.33 0,50.01 24.38,91.93 73.17,125.85 48.82,33.96 109.5,50.89 182.11,50.89 174.96,0 332.66,-87.48 472.81,-262.43 41.06,-51.46 96.7,-131.53 166.33,-239.52 -98.8,-43.13 -148.18,-112.48 -148.18,-208.27 0,-116.36 65.43,-202.65 196.06,-259.18 66.36,-29.17 170.51,-55.64 313.05,-79.44l95.77 -15.46 82.15 -17.56c31.24,-23.22 71.99,-46.42 122.29,-69.32 50.29,-22.92 85.1,-34.22 104.12,-34.22 9.83,0 14.91,2.96 14.91,8.6zm-262.45 110.1c-13.09,2.99 -33.02,7.44 -59.2,14 -21.42,5.93 -52.98,13.69 -94.03,23.51 -141.95,33.91 -254.71,83.59 -338.63,149.05 -83.88,65.46 -125.84,136.58 -125.84,212.77 0,73.47 35.7,125.25 107.13,155.6 153.82,-246.38 324,-431.43 510.57,-554.93zm445.71 769.46c0,12.19 -42.26,68.72 -126.14,169.62 -69.07,82.69 -123.51,124.07 -162.77,124.07 -26.21,0 -47.93,-10.12 -65.76,-30.67 -17.58,-20.23 -26.51,-45.21 -26.51,-74.68 0,-26.17 5.38,-50.57 16.1,-72.88 11.01,-22.32 38.95,-66.65 84.51,-133 47.3,-69.66 70.8,-113.98 70.8,-133.34 0,-23.79 -12.49,-35.69 -37.47,-35.69 -84.82,0 -215.74,157.71 -392.78,473.11 -28.27,-2.38 -45.52,-3.56 -51.19,-3.56 -20.53,0 -39.56,1.18 -57.72,3.56l135.98 -215.71c77.06,-123.21 115.75,-200.27 115.75,-231.2 0,-17.56 -7.15,-26.2 -21.72,-26.2 -29.46,0 -87.47,62.79 -174.07,188.35 -5.34,7.74 -9.23,11.89 -12.19,12.48 -2.97,0 -4.75,-1.77 -5.34,-5.33 0.59,-2.97 1.78,-5.37 3.56,-7.15l16.64 -21.72c88.67,-119.32 148.2,-179.12 178.85,-179.12 19.92,0 36.59,8.93 50.57,27.09 13.97,17.83 20.82,39.56 20.82,64.54 0,37.22 -21.71,88.68 -65.46,155.03 68.72,-94.61 121.4,-159.48 158.29,-194.29 36.91,-34.8 70.83,-52.37 102.38,-52.37 25.28,0 46.99,10.42 64.28,31.24 17.53,21.13 26.16,47.01 26.16,77.66 0,38.96 -26.76,98.49 -80.32,178.82 -54.75,81.85 -82.15,134.19 -82.15,156.8 0,23.82 11.91,35.74 35.7,35.74 51.49,0 140.74,-92.57 267.21,-277.64 2.97,-5.94 5.66,-8.9 8.65,-8.9 3.56,0 5.34,1.78 5.34,5.34zm322.23 -199.06l-7.15 12.49 -113.95 0 -194.6 332.35c-23.81,40.18 -35.71,72.33 -35.71,96.12 0,26.17 13.68,39.3 41.08,39.3 52.64,0 141.63,-92.57 267.18,-277.64 4.15,-5.94 7.45,-8.9 10.41,-8.9 3.58,0 5.36,1.78 5.36,5.34 -0.6,1.78 -3.56,6.55 -8.92,13.97l-37.2 51.49c-109.2,152.06 -191.31,228.23 -246.35,228.23 -27.4,0 -50.01,-9.82 -68.43,-29.78 -18.17,-19.64 -27.4,-44.32 -27.4,-74.09 0,-34.8 15.49,-78.25 46.12,-130.59l146.7 -245.8 -88.95 0 8.6 -12.49 87.17 0 102.09 -169.59c17.24,4.75 33.93,7.12 49.68,7.12 16.08,0 33.03,-2.37 50.3,-7.12l-100.28 169.59 114.25 0zm411.83 200.84c0,1.78 -5.37,9.22 -15.79,22.6l-37.48 47.04c-120.21,148.17 -223.19,222.27 -309.15,222.27 -40.78,0 -74.68,-14.6 -102.38,-44.05 -27.65,-29.16 -41.34,-66.05 -41.34,-110.09 0,-104.44 72.89,-196.38 218.68,-275.81 76.76,-41.97 139.25,-62.8 187.45,-62.8 20.84,0 38.7,6.27 53.56,18.75 14.89,12.49 22.31,27.65 22.31,45.83 0,41.65 -27.35,77.35 -81.81,106.81 -54.45,29.15 -145.48,56.83 -273.14,82.12 -39.56,60.12 -59.2,109.8 -59.2,149.97 0,49.97 27.05,74.96 80.92,74.96 91.62,0 203.53,-89.56 336.52,-268.97 6.84,-9.23 12.51,-13.97 17.26,-13.97 2.37,0.59 3.59,2.37 3.59,5.34zm-72.32 -162.15c0,-18.75 -10.11,-27.98 -30.66,-27.98 -30.65,0 -71.1,21.42 -121.4,64.28 -50.27,42.56 -99.68,98.18 -147.86,166.03 83.89,-21.43 154.72,-51.78 212.73,-91.05 58.01,-39.29 87.19,-76.46 87.19,-111.28zm570.69 162.15c0,4.77 -17.56,25.9 -52.38,63.38 -44.32,48.79 -85.99,73.2 -124.95,73.2 -44.34,0 -66.35,-25.6 -66.35,-76.76 0,-16.38 3.56,-36.92 10.41,-61.9 -36.61,31.83 -66.35,63.68 -89.25,94.92 -23.25,31.55 -62.79,95.5 -119.32,191.92 -30.67,-2.38 -48.82,-3.56 -53.86,-3.56 -2.38,0 -20.24,1.18 -53.27,3.56l142.81 -232.09c71.41,-116.65 107.13,-188.64 107.13,-216.63 0,-16.35 -6.55,-24.39 -19.93,-24.39 -32.44,0 -91.05,62.79 -175.85,188.35 -5.38,8.33 -9.82,12.48 -13.98,12.48 -2.4,-0.59 -3.59,-2.37 -3.59,-5.33 0.6,-2.97 1.81,-5.37 3.59,-7.15l15.76 -21.72c89.25,-119.32 149.67,-179.12 181.51,-179.12 46.42,0 69.62,30.06 69.62,89.85 0,44.64 -23.8,103.87 -71.43,177.93 30.06,-35.11 58.94,-63.35 86.29,-85.66 22.03,-51.79 49.41,-94.94 82.15,-129.75 33.02,-34.8 62.46,-52.37 88.36,-52.37 18.14,0 27.07,7.75 27.07,23.5 0,27.98 -40.45,67.54 -121.39,119.32 -12.81,8.04 -32.15,20.23 -57.72,35.71l-10.43 8.93c-8.04,26.46 -12.19,48.8 -12.19,66.05 0,48.82 18.47,73.2 55.04,73.2 45.53,0 95.24,-37.22 149.07,-111.87 11.6,-12.82 18.75,-19.34 21.71,-19.34 3.59,0 5.37,1.78 5.37,5.34zm695.96 -1.78c0,12.19 -42.26,68.72 -126.14,169.62 -69.07,82.69 -123.51,124.07 -162.77,124.07 -26.2,0 -47.93,-10.12 -65.76,-30.67 -17.56,-20.23 -26.51,-45.21 -26.51,-74.68 0,-26.17 5.37,-50.57 16.1,-72.88 11.01,-22.32 38.95,-66.65 84.51,-133 47.3,-69.66 70.8,-113.98 70.8,-133.34 0,-23.79 -12.49,-35.69 -37.47,-35.69 -84.82,0 -215.74,157.71 -392.78,473.11 -28.27,-2.38 -45.52,-3.56 -51.19,-3.56 -20.53,0 -39.55,1.18 -57.72,3.56l135.98 -215.71c77.06,-123.21 115.75,-200.27 115.75,-231.2 0,-17.56 -7.15,-26.2 -21.72,-26.2 -29.46,0 -87.47,62.79 -174.07,188.35 -5.34,7.74 -9.23,11.89 -12.19,12.48 -2.97,0 -4.75,-1.77 -5.34,-5.33 0.59,-2.97 1.78,-5.37 3.56,-7.15l16.64 -21.72c88.67,-119.32 148.2,-179.12 178.85,-179.12 19.92,0 36.59,8.93 50.56,27.09 13.98,17.83 20.83,39.56 20.83,64.54 0,37.22 -21.72,88.68 -65.46,155.03 68.72,-94.61 121.4,-159.48 158.29,-194.29 36.92,-34.8 70.83,-52.37 102.38,-52.37 25.28,0 46.99,10.42 64.27,31.24 17.54,21.13 26.17,47.01 26.17,77.66 0,38.96 -26.76,98.49 -80.32,178.82 -54.75,81.85 -82.15,134.19 -82.15,156.8 0,23.82 11.91,35.74 35.7,35.74 51.49,0 140.74,-92.57 267.21,-277.64 2.99,-5.94 5.66,-8.9 8.65,-8.9 3.56,0 5.34,1.78 5.34,5.34zm612.63 0c0,12.19 -42.56,68.72 -127.04,169.62 -68.46,82.69 -122.28,124.07 -161.88,124.07 -26.76,0 -48.49,-10.12 -65.16,-30.07 -16.94,-20.24 -25.28,-45.21 -25.28,-75.58 0,-31.24 9.23,-65.16 27.95,-101.76 -58.01,81.23 -102.35,136.28 -133,164.55 -30.96,28.55 -60.68,42.86 -89.86,42.86 -30.65,0 -56.53,-13.09 -77.36,-39.6 -20.82,-26.46 -31.24,-59.79 -31.24,-99.68 0,-111.56 78.55,-210.05 235.96,-296.04 69.04,-38.38 124.68,-57.43 167.22,-57.43 36,0 53.86,17.57 53.86,52.37 0,10.13 -2.37,22.91 -6.85,39.26l44.33 -84.48c17.27,4.16 32.73,6.23 46.12,6.23 15.79,0 36.02,-2.07 61.01,-6.23l-153.84 255.29c-53.26,89.55 -80.02,148.45 -80.02,176.74 0,27.35 11.3,41.08 33.91,41.08 22.92,0 60.09,-26.81 110.98,-80.08 50.86,-53.53 102.65,-119.29 155.32,-197.56 3.56,-5.94 6.53,-8.9 9.53,-8.9 3.56,0 5.34,1.78 5.34,5.34zm-238.32 -143.71c0,-28.56 -13.11,-42.86 -39.29,-42.86 -53.57,0 -123.77,52.38 -210.65,157.09 -86.9,104.76 -130.33,189.28 -130.33,253.82 0,37.79 16.97,56.86 50.58,56.86 40.15,0 109.5,-66.67 208.59,-199.96 80.62,-109.21 121.1,-184.19 121.1,-224.95zm562.36 -55.35l-7.16 12.49 -113.95 0 -194.6 332.35c-23.79,40.18 -35.7,72.33 -35.7,96.12 0,26.17 13.69,39.3 41.07,39.3 52.65,0 141.63,-92.57 267.2,-277.64 4.15,-5.94 7.45,-8.9 10.41,-8.9 3.56,0 5.34,1.78 5.34,5.34 -0.59,1.78 -3.56,6.55 -8.9,13.97l-37.22 51.49c-109.2,152.06 -191.3,228.23 -246.35,228.23 -27.38,0 -50,-9.82 -68.43,-29.78 -18.15,-19.64 -27.4,-44.32 -27.4,-74.09 0,-34.8 15.51,-78.25 46.12,-130.59l146.72 -245.8 -88.97 0 8.6 -12.49 87.19 0 102.07 -169.59c17.26,4.75 33.93,7.12 49.68,7.12 16.08,0 33.04,-2.37 50.3,-7.12l-100.27 169.59 114.25 0zm259.18 -160.69c0,20.53 -8.65,39.59 -25.91,57.16 -16.94,17.83 -35.69,26.76 -56.24,26.76 -26.16,0 -39.24,-13.09 -39.24,-39.25 0,-19.36 8.89,-37.81 27.05,-55.35 18.16,-17.87 36.89,-26.8 56.83,-26.8 25.01,0 37.51,12.5 37.51,37.48zm11.6 359.75c-0.59,1.78 -3.59,6.55 -8.93,13.97l-37.48 51.49c-108.91,152.06 -192.23,228.23 -249.65,228.23 -27.4,0 -50.01,-9.82 -68.43,-29.18 -18.17,-19.35 -27.4,-43.73 -27.4,-72.58 0,-33.65 19.96,-84.81 60.13,-153.23l136.26 -230.61c18.17,4.16 32.14,6.23 42.55,6.23 15.76,0 37.78,-2.07 66.35,-6.23l-198.16 324.9c-28.57,47.01 -42.85,83.32 -42.85,108.91 0,26.17 13.69,39.3 41.07,39.3 51.46,0 142.52,-92.57 272.54,-277.64 3,-5.94 5.67,-8.9 8.63,-8.9 3.59,0 5.37,1.78 5.37,5.34zm517.69 0c0,9.22 -17.23,30.94 -51.46,65.16 -51.17,51.19 -98.18,76.76 -141.03,76.76 -18.16,0 -34.21,-3.56 -47.9,-10.41 -76.76,108.02 -148.78,162.18 -216.02,162.18 -35.11,0 -64.87,-14.31 -89.57,-43.16 -24.68,-28.57 -36.87,-63.08 -36.87,-103.27 0,-89.25 58.61,-175.52 176.15,-258.55 82.69,-58.6 150.53,-87.77 204.09,-87.77 50.01,0 74.98,26.79 74.98,80.03 0,66.94 -35.09,147.6 -105.33,241.61 11.6,6.85 24.71,10.41 38.98,10.41 26.18,0 56.83,-12.19 91.35,-36.58 34.8,-24.4 63.09,-53.56 85.1,-87.78 6.52,-8.04 11,-12.19 13.97,-12.19 2.37,0 3.56,1.18 3.56,3.56zm-140.12 -117.55c0,-47.3 -21.12,-70.8 -63.68,-70.8 -52.97,0 -117.24,50.6 -193.41,151.75 -76.16,101.46 -114.25,186.56 -114.25,255.89 0,40.17 19.05,60.09 57.42,60.09 62.79,0 131.52,-51.75 205.91,-155.32 -16.97,-18.72 -25.28,-37.78 -25.28,-57.71 0,-28.25 11.3,-57.72 33.91,-88.07 22.62,-30.37 44.63,-45.23 66.35,-45.23 9.24,0 15.47,5.67 19.03,17.27 9.23,-20.23 14,-42.86 14,-67.87zm839.97 117.55c0,12.19 -42.26,68.72 -126.15,169.62 -69.05,82.69 -123.5,124.07 -162.76,124.07 -26.2,0 -47.93,-10.12 -65.76,-30.67 -17.56,-20.23 -26.49,-45.21 -26.49,-74.68 0,-26.17 5.37,-50.57 16.08,-72.88 11,-22.32 38.96,-66.65 84.5,-133 47.31,-69.66 70.82,-113.98 70.82,-133.34 0,-23.79 -12.51,-35.69 -37.49,-35.69 -84.82,0 -215.74,157.71 -392.77,473.11 -28.28,-2.38 -45.51,-3.56 -51.18,-3.56 -20.55,0 -39.56,1.18 -57.72,3.56l135.97 -215.71c77.06,-123.21 115.76,-200.27 115.76,-231.2 0,-17.56 -7.15,-26.2 -21.73,-26.2 -29.46,0 -87.48,62.79 -174.08,188.35 -5.33,7.74 -9.22,11.89 -12.19,12.48 -2.96,0 -4.74,-1.77 -5.34,-5.33 0.6,-2.97 1.78,-5.37 3.56,-7.15l16.66 -21.72c88.66,-119.32 148.19,-179.12 178.83,-179.12 19.92,0 36.6,8.93 50.57,27.09 13.99,17.83 20.84,39.56 20.84,64.54 0,37.22 -21.73,88.68 -65.46,155.03 68.72,-94.61 121.4,-159.48 158.27,-194.29 36.93,-34.8 70.83,-52.37 102.39,-52.37 25.27,0 47,10.42 64.27,31.24 17.53,21.13 26.17,47.01 26.17,77.66 0,38.96 -26.76,98.49 -80.33,178.82 -54.75,81.85 -82.13,134.19 -82.13,156.8 0,23.82 11.9,35.74 35.69,35.74 51.49,0 140.75,-92.57 267.23,-277.64 2.96,-5.94 5.63,-8.9 8.63,-8.9 3.56,0 5.34,1.78 5.34,5.34zm612.62 0c0,12.19 -42.54,68.72 -127.03,169.62 -68.46,82.69 -122.29,124.07 -161.88,124.07 -26.76,0 -48.48,-10.12 -65.16,-30.07 -16.94,-20.24 -25.28,-45.21 -25.28,-75.58 0,-31.24 9.23,-65.16 27.95,-101.76 -58.02,81.23 -102.34,136.28 -133,164.55 -30.94,28.55 -60.69,42.86 -89.85,42.86 -30.66,0 -56.53,-13.09 -77.37,-39.6 -20.83,-26.46 -31.24,-59.79 -31.24,-99.68 0,-111.56 78.54,-210.05 235.97,-296.04 69.02,-38.38 124.66,-57.43 167.22,-57.43 35.99,0 53.85,17.57 53.85,52.37 0,10.13 -2.38,22.91 -6.86,39.26l44.34 -84.48c17.27,4.16 32.74,6.23 46.12,6.23 15.78,0 36.01,-2.07 61.01,-6.23l-153.84 255.29c-53.27,89.55 -80.03,148.45 -80.03,176.74 0,27.35 11.31,41.08 33.93,41.08 22.9,0 60.09,-26.81 110.97,-80.08 50.86,-53.53 102.64,-119.29 155.32,-197.56 3.56,-5.94 6.53,-8.9 9.52,-8.9 3.56,0 5.34,1.78 5.34,5.34zm-238.31 -143.71c0,-28.56 -13.12,-42.86 -39.28,-42.86 -53.57,0 -123.77,52.38 -210.67,157.09 -86.88,104.76 -130.33,189.28 -130.33,253.82 0,37.79 16.97,56.86 50.6,56.86 40.14,0 109.5,-66.67 208.58,-199.96 80.63,-109.21 121.1,-184.19 121.1,-224.95zm698.33 -473.1c-243.98,406.44 -386.52,645.08 -426.69,716.78 -40.45,71.43 -60.68,118.73 -60.68,141.93 0,26.17 11.01,39.3 33.32,39.3 49.08,0 138.97,-92.57 269.56,-277.64 3,-5.94 6.27,-8.9 10.42,-8.9 2.4,0.59 3.59,2.37 3.59,5.34 0,3.56 -3,8.04 -8.93,13.97l-37.49 51.49c-110.09,152.06 -191.33,228.23 -243.71,228.23 -24.98,0 -45.53,-9.53 -61.57,-28.29 -16.08,-19.05 -24.09,-42.84 -24.09,-71.99 0,-31.83 7.41,-62.79 22.31,-92.84 14.56,-29.74 65.16,-116.03 151.13,-259.16 105.04,-174.66 193.72,-326.41 265.7,-454.66 17.56,4.77 32.74,6.85 46.15,6.85 22.01,0 42.54,-3.26 60.98,-10.41z"/>
  </g>
 </g>
</svg>
